<svg xmlns="http://www.w3.org/2000/svg" xmlns:xlink="http://www.w3.org/1999/xlink" width="500" zoomAndPan="magnify" viewBox="0 0 375 374.999991" height="500" preserveAspectRatio="xMidYMid meet" version="1.0"><defs><g/></defs><g fill="#ffffff" fill-opacity="1"><g transform="translate(0.0000045, 249.079745)"><g><path d="M 74.78125 -96.898438 C 75.832031 -96.898438 79.257812 -92.6875 82.417969 -87.945312 C 90.316406 -75.308594 104.796875 -58.457031 117.175781 -44.761719 C 104.007812 -41.339844 46.605469 -41.601562 43.445312 -43.972656 C 45.027344 -48.449219 70.042969 -84.785156 70.832031 -90.054688 C 72.148438 -93.738281 73.992188 -96.898438 74.78125 -96.898438 Z M 152.984375 -40.550781 C 152.984375 -46.34375 151.140625 -48.976562 140.34375 -57.929688 C 126.390625 -69.515625 95.847656 -107.695312 90.054688 -121.125 C 81.363281 -140.871094 77.941406 -146.136719 71.882812 -148.773438 C 66.355469 -150.878906 64.511719 -150.878906 60.5625 -147.980469 C 57.929688 -145.875 51.871094 -134.816406 47.394531 -123.230469 C 39.761719 -103.21875 20.539062 -69.515625 16.324219 -50.03125 C 15.273438 -45.289062 13.691406 -38.96875 12.113281 -36.335938 C 10.53125 -33.703125 10.007812 -31.597656 10.796875 -31.597656 C 13.957031 -31.597656 4.738281 -27.382812 9.214844 -27.382812 C 13.164062 -27.382812 11.058594 -21.589844 15.007812 -20.273438 C 20.539062 -18.695312 103.480469 -18.695312 119.808594 -21.066406 C 141.660156 -24.226562 142.980469 -24.75 148.246094 -29.492188 C 151.140625 -32.125 152.984375 -36.335938 152.984375 -40.550781 Z M 152.984375 -40.550781 "/></g></g></g><g fill="#ffffff" fill-opacity="1"><g transform="translate(160.8926, 194.022833)"><g><path d="M 88.566406 -92.515625 C 88.566406 -92.757812 88.449219 -92.996094 88.207031 -93.355469 C 87.847656 -93.476562 87.492188 -93.714844 88.328125 -96.824219 C 89.40625 -100.058594 89.164062 -101.492188 88.328125 -102.09375 C 87.730469 -102.332031 87.132812 -102.449219 86.414062 -102.449219 C 85.933594 -102.449219 85.574219 -102.449219 85.214844 -102.332031 C 82.941406 -101.851562 80.429688 -99.339844 79.949219 -97.425781 C 79.472656 -95.628906 78.515625 -91.917969 76.839844 -88.328125 C 76 -86.171875 74.921875 -81.984375 74.085938 -78.394531 C 72.410156 -72.886719 70.496094 -66.1875 69.296875 -60.5625 C 68.460938 -57.570312 67.503906 -54.21875 67.023438 -51.945312 C 66.546875 -49.191406 65.828125 -46.917969 65.585938 -45.242188 C 64.03125 -44.644531 61.277344 -44.644531 59.722656 -44.644531 C 56.371094 -44.644531 53.019531 -44.523438 49.667969 -44.402344 L 46.320312 -44.285156 C 44.523438 -44.285156 43.085938 -44.285156 41.890625 -44.402344 L 38.300781 -44.402344 L 36.382812 -44.523438 C 36.265625 -45.121094 36.625 -46.078125 36.863281 -47.15625 C 37.34375 -48.59375 37.582031 -49.910156 37.820312 -51.34375 C 37.582031 -51.703125 37.820312 -52.0625 37.820312 -52.0625 C 38.058594 -52.421875 38.058594 -52.78125 38.660156 -53.5 C 38.777344 -54.695312 38.898438 -55.054688 38.539062 -55.535156 C 38.058594 -55.652344 38.058594 -55.652344 38.179688 -55.894531 C 39.734375 -62.117188 40.214844 -66.066406 40.335938 -69.539062 C 40.214844 -70.015625 40.335938 -71.09375 40.09375 -71.8125 C 40.214844 -72.289062 39.855469 -73.007812 39.734375 -73.726562 L 39.375 -74.207031 L 39.136719 -73.007812 C 39.015625 -72.171875 39.015625 -71.929688 38.777344 -71.929688 C 38.539062 -72.410156 38.300781 -73.128906 38.660156 -75.042969 C 39.136719 -78.273438 39.855469 -84.5 39.617188 -86.53125 C 39.855469 -88.808594 39.855469 -91.320312 39.734375 -93.714844 C 39.734375 -98.859375 39.496094 -99.699219 38.179688 -101.492188 C 36.984375 -104.84375 33.992188 -108.914062 30.042969 -108.914062 C 29.203125 -108.914062 28.367188 -108.792969 27.648438 -108.554688 C 25.492188 -108.433594 24.058594 -106.878906 24.058594 -104.726562 L 23.578125 -103.050781 C 21.664062 -92.996094 20.105469 -82.824219 18.671875 -72.648438 C 18.429688 -71.214844 18.3125 -70.015625 18.3125 -69.417969 C 17.714844 -65.707031 17.234375 -61.636719 16.875 -59.605469 C 16.636719 -57.449219 15.917969 -53.859375 15.441406 -50.148438 C 15.082031 -46.917969 14.722656 -43.566406 14.480469 -43.683594 C 14.363281 -43.328125 13.285156 -43.085938 12.328125 -43.085938 C 10.890625 -42.847656 9.8125 -42.367188 9.097656 -42.128906 L 6.464844 -41.171875 C 6.222656 -40.8125 6.105469 -40.8125 5.984375 -40.8125 C 5.625 -40.8125 5.503906 -41.652344 5.148438 -41.652344 C 4.90625 -41.652344 4.667969 -41.53125 4.308594 -40.933594 C 3.113281 -40.09375 2.273438 -39.257812 1.796875 -38.777344 C 1.554688 -38.777344 1.316406 -38.777344 1.195312 -38.777344 C 0.71875 -38.777344 0.597656 -38.660156 0.480469 -38.417969 C 0.359375 -37.820312 0.238281 -39.015625 -0.359375 -39.015625 C -0.359375 -39.015625 -0.480469 -39.015625 -0.597656 -38.898438 C -1.195312 -37.34375 -1.796875 -36.265625 -1.675781 -34.949219 C -1.554688 -34.828125 -0.957031 -34.707031 -0.238281 -34.707031 C 0.121094 -34.707031 0.359375 -34.707031 0.597656 -34.707031 C 0.957031 -34.828125 1.195312 -34.949219 1.4375 -34.949219 C 1.675781 -34.949219 1.796875 -34.828125 2.035156 -34.707031 C 2.511719 -34.351562 2.871094 -34.109375 3.230469 -34.109375 C 3.949219 -34.109375 4.90625 -34.46875 6.941406 -35.308594 C 9.097656 -36.382812 10.054688 -36.503906 11.488281 -36.503906 C 11.730469 -36.503906 12.207031 -36.503906 12.449219 -36.625 C 12.6875 -36.503906 12.804688 -36.625 13.164062 -36.742188 C 13.644531 -36.382812 11.128906 -26.332031 10.292969 -23.097656 C 7.78125 -12.566406 5.863281 -5.027344 4.308594 0.480469 C 2.992188 4.667969 2.15625 7.539062 1.316406 9.574219 C 0.71875 10.773438 -0.121094 12.804688 -0.359375 14.242188 C -0.597656 15.320312 -0.597656 15.679688 -1.078125 15.679688 C -1.195312 15.679688 -1.316406 15.679688 -1.4375 15.679688 C -2.273438 15.679688 -2.394531 16.039062 -2.15625 16.398438 C -1.796875 16.398438 -2.394531 16.996094 -3.230469 17.355469 C -4.070312 18.191406 -4.789062 18.910156 -5.148438 19.75 C -5.148438 20.347656 -5.027344 21.066406 -4.789062 21.664062 C -4.667969 22.621094 -3.949219 23.21875 -2.753906 23.21875 C -2.511719 23.21875 -2.15625 23.21875 -1.796875 23.097656 L -1.078125 22.859375 C 0 22.859375 0.835938 22.980469 1.796875 23.457031 C 1.796875 23.816406 2.273438 24.058594 2.992188 24.058594 C 3.230469 24.058594 3.589844 23.9375 3.949219 23.9375 L 5.386719 23.457031 C 5.863281 23.097656 6.703125 22.742188 7.300781 22.742188 C 8.855469 22.382812 10.53125 21.542969 11.96875 20.464844 C 12.925781 19.867188 14.242188 19.03125 15.679688 17.953125 C 16.996094 16.996094 18.074219 15.917969 18.3125 15.917969 C 18.671875 15.917969 18.671875 15.679688 19.03125 15.796875 C 19.03125 15.558594 19.507812 14.960938 19.75 14.722656 C 22.859375 10.414062 24.414062 7.421875 26.332031 1.796875 C 30.042969 -7.179688 33.511719 -23.816406 33.871094 -33.390625 C 33.992188 -33.992188 33.992188 -34.589844 33.871094 -34.949219 C 34.109375 -35.667969 34.230469 -36.503906 34.230469 -37.222656 C 35.667969 -37.582031 38.058594 -37.820312 40.453125 -37.820312 C 40.933594 -37.820312 41.410156 -37.820312 41.890625 -37.820312 C 43.207031 -37.820312 44.523438 -37.699219 45.839844 -37.699219 C 47.992188 -37.699219 49.789062 -37.820312 50.984375 -38.058594 C 52.542969 -38.660156 53.738281 -38.660156 55.414062 -38.660156 C 57.449219 -38.660156 61.398438 -38.777344 63.3125 -39.617188 C 63.914062 -39.496094 64.269531 -38.539062 63.914062 -36.984375 C 60.800781 -24.296875 58.644531 -11.371094 56.851562 1.554688 C 55.773438 13.523438 55.054688 18.429688 54.578125 22.980469 C 54.578125 24.414062 54.9375 25.734375 55.414062 26.808594 C 55.773438 27.765625 56.253906 28.605469 56.851562 29.324219 C 57.449219 29.921875 58.046875 30.28125 58.644531 30.28125 C 58.886719 30.28125 59.003906 30.28125 59.246094 30.160156 C 60.082031 30.042969 60.679688 29.921875 61.757812 29.5625 L 61.757812 29.324219 C 61.878906 29.082031 62.117188 28.84375 62.59375 28.367188 C 64.75 27.167969 65.828125 25.734375 66.425781 23.9375 C 66.546875 22.980469 67.261719 22.023438 67.742188 21.183594 C 68.101562 19.988281 68.460938 19.75 69.539062 19.628906 C 69.777344 19.628906 70.136719 19.269531 70.253906 18.429688 C 70.375 18.3125 70.375 17.832031 70.136719 17.832031 L 70.375 16.875 C 70.496094 16.039062 71.214844 15.441406 71.214844 15.441406 C 71.332031 15.558594 73.007812 10.53125 73.367188 8.496094 C 73.488281 7.660156 73.847656 7.421875 73.847656 7.78125 C 73.726562 8.136719 73.726562 8.257812 73.847656 8.378906 L 73.847656 7.78125 L 74.445312 6.820312 C 75.28125 5.265625 75.523438 3.351562 75.042969 2.273438 C 75.042969 1.796875 75.164062 0.835938 75.402344 -0.957031 C 75.761719 -5.503906 75.878906 -8.617188 75.640625 -12.089844 C 75.042969 -12.804688 75.164062 -13.164062 75.640625 -15.558594 C 75.878906 -17.59375 76.597656 -20.464844 77.078125 -22.621094 L 78.871094 -31.714844 C 79.351562 -36.503906 79.949219 -36.863281 80.070312 -37.460938 C 80.789062 -38.058594 81.746094 -38.300781 82.582031 -38.300781 C 83.78125 -38.300781 85.097656 -37.941406 86.171875 -37.941406 C 87.492188 -37.941406 88.6875 -38.417969 89.523438 -40.214844 C 90.484375 -40.453125 91.082031 -41.050781 91.679688 -41.890625 C 91.679688 -42.128906 91.800781 -42.367188 91.917969 -42.609375 C 91.800781 -43.085938 91.558594 -43.445312 91.199219 -43.804688 C 91.320312 -43.804688 91.320312 -43.804688 91.082031 -43.925781 C 91.082031 -43.804688 91.082031 -44.285156 90.960938 -44.285156 C 90.960938 -44.644531 90.960938 -44.644531 89.882812 -44.644531 C 89.644531 -44.523438 89.40625 -44.523438 89.046875 -44.523438 C 88.566406 -44.523438 83.78125 -45.71875 83.183594 -45.839844 L 80.667969 -45.71875 L 81.148438 -50.507812 C 81.507812 -54.457031 81.746094 -57.210938 81.625 -58.644531 C 81.507812 -59.125 81.625 -59.84375 81.746094 -61.039062 L 82.105469 -62.59375 C 82.34375 -64.152344 82.824219 -65.46875 82.941406 -65.828125 L 83.300781 -70.972656 C 83.0625 -71.453125 83.898438 -73.726562 84.5 -75.640625 C 85.097656 -76.957031 85.097656 -77.554688 84.738281 -78.15625 L 84.855469 -81.148438 L 85.214844 -83.660156 C 85.574219 -84.855469 86.054688 -85.933594 86.171875 -86.652344 C 86.171875 -86.890625 86.292969 -87.011719 86.171875 -87.132812 C 86.171875 -87.847656 87.25 -90.839844 87.492188 -90.839844 C 87.492188 -90.839844 87.609375 -90.839844 87.730469 -90.722656 C 88.089844 -91.082031 88.449219 -91.320312 88.6875 -91.441406 C 88.566406 -91.679688 88.566406 -91.917969 88.6875 -92.398438 Z M 88.566406 -92.515625 "/></g></g></g><g fill="#ffffff" fill-opacity="0.4"><g transform="translate(255.052284, 223.383819)"><g><path d="M 5.03125 -33.515625 L 19.15625 -33.515625 C 22.695312 -33.515625 25.835938 -32.8125 28.578125 -31.40625 C 31.328125 -30 33.457031 -28.023438 34.96875 -25.484375 C 36.488281 -22.953125 37.25 -20.039062 37.25 -16.75 C 37.25 -13.46875 36.488281 -10.554688 34.96875 -8.015625 C 33.457031 -5.484375 31.328125 -3.515625 28.578125 -2.109375 C 25.835938 -0.703125 22.695312 0 19.15625 0 L 5.03125 0 Z M 18.859375 -4.171875 C 21.578125 -4.171875 23.960938 -4.695312 26.015625 -5.75 C 28.078125 -6.800781 29.664062 -8.273438 30.78125 -10.171875 C 31.894531 -12.066406 32.453125 -14.257812 32.453125 -16.75 C 32.453125 -19.238281 31.894531 -21.429688 30.78125 -23.328125 C 29.664062 -25.234375 28.078125 -26.710938 26.015625 -27.765625 C 23.960938 -28.816406 21.578125 -29.34375 18.859375 -29.34375 L 9.8125 -29.34375 L 9.8125 -4.171875 Z M 18.859375 -4.171875 "/></g></g></g><g fill="#ffffff" fill-opacity="0.4"><g transform="translate(301.439741, 223.383819)"><g><path d="M 29.34375 -4.171875 L 29.34375 0 L 5.03125 0 L 5.03125 -33.515625 L 28.671875 -33.515625 L 28.671875 -29.34375 L 9.8125 -29.34375 L 9.8125 -19.046875 L 26.625 -19.046875 L 26.625 -14.984375 L 9.8125 -14.984375 L 9.8125 -4.171875 Z M 29.34375 -4.171875 "/></g></g></g><g fill="#ffffff" fill-opacity="0.4"><g transform="translate(340.359349, 223.383819)"><g><path d="M 34.140625 -33.515625 L 19.4375 0 L 14.703125 0 L -0.046875 -33.515625 L 5.125 -33.515625 L 17.1875 -5.984375 L 29.34375 -33.515625 Z M 34.140625 -33.515625 "/></g></g></g><g fill="#5417d4" fill-opacity="1"><g transform="translate(252.174773, 220.506308)"><g><path d="M 5.03125 -33.515625 L 19.15625 -33.515625 C 22.695312 -33.515625 25.835938 -32.8125 28.578125 -31.40625 C 31.328125 -30 33.457031 -28.023438 34.96875 -25.484375 C 36.488281 -22.953125 37.25 -20.039062 37.25 -16.75 C 37.25 -13.46875 36.488281 -10.554688 34.96875 -8.015625 C 33.457031 -5.484375 31.328125 -3.515625 28.578125 -2.109375 C 25.835938 -0.703125 22.695312 0 19.15625 0 L 5.03125 0 Z M 18.859375 -4.171875 C 21.578125 -4.171875 23.960938 -4.695312 26.015625 -5.75 C 28.078125 -6.800781 29.664062 -8.273438 30.78125 -10.171875 C 31.894531 -12.066406 32.453125 -14.257812 32.453125 -16.75 C 32.453125 -19.238281 31.894531 -21.429688 30.78125 -23.328125 C 29.664062 -25.234375 28.078125 -26.710938 26.015625 -27.765625 C 23.960938 -28.816406 21.578125 -29.34375 18.859375 -29.34375 L 9.8125 -29.34375 L 9.8125 -4.171875 Z M 18.859375 -4.171875 "/></g></g></g><g fill="#5417d4" fill-opacity="1"><g transform="translate(298.56223, 220.506308)"><g><path d="M 29.34375 -4.171875 L 29.34375 0 L 5.03125 0 L 5.03125 -33.515625 L 28.671875 -33.515625 L 28.671875 -29.34375 L 9.8125 -29.34375 L 9.8125 -19.046875 L 26.625 -19.046875 L 26.625 -14.984375 L 9.8125 -14.984375 L 9.8125 -4.171875 Z M 29.34375 -4.171875 "/></g></g></g><g fill="#5417d4" fill-opacity="1"><g transform="translate(337.481838, 220.506308)"><g><path d="M 34.140625 -33.515625 L 19.4375 0 L 14.703125 0 L -0.046875 -33.515625 L 5.125 -33.515625 L 17.1875 -5.984375 L 29.34375 -33.515625 Z M 34.140625 -33.515625 "/></g></g></g><g fill="#fffff0" fill-opacity="0.4"><g transform="translate(188.604454, 255.881348)"><g/></g></g><g fill="#ffffff" fill-opacity="1"><g transform="translate(187.499994, 254.776885)"><g/></g></g><g fill="#fffff0" fill-opacity="0.4"><g transform="translate(49.690635, 285.504328)"><g><path d="M 13.203125 -1.875 L 13.203125 0 L 2.265625 0 L 2.265625 -15.078125 L 12.90625 -15.078125 L 12.90625 -13.203125 L 4.421875 -13.203125 L 4.421875 -8.578125 L 11.984375 -8.578125 L 11.984375 -6.75 L 4.421875 -6.75 L 4.421875 -1.875 Z M 13.203125 -1.875 "/></g></g></g><g fill="#fffff0" fill-opacity="0.4"><g transform="translate(64.125065, 285.504328)"><g><path d="M 15.234375 -15.078125 L 15.234375 0 L 13.46875 0 L 4.421875 -11.25 L 4.421875 0 L 2.265625 0 L 2.265625 -15.078125 L 4.03125 -15.078125 L 13.078125 -3.828125 L 13.078125 -15.078125 Z M 15.234375 -15.078125 "/></g></g></g><g fill="#fffff0" fill-opacity="0.4"><g transform="translate(81.618733, 285.504328)"><g><path d="M 5.25 -13.203125 L 0.09375 -13.203125 L 0.09375 -15.078125 L 12.5625 -15.078125 L 12.5625 -13.203125 L 7.390625 -13.203125 L 7.390625 0 L 5.25 0 Z M 5.25 -13.203125 "/></g></g></g><g fill="#fffff0" fill-opacity="0.4"><g transform="translate(94.265008, 285.504328)"><g><path d="M 11.875 -3.765625 L 3.859375 -3.765625 L 2.203125 0 L -0.015625 0 L 6.8125 -15.078125 L 8.9375 -15.078125 L 15.796875 0 L 13.53125 0 Z M 11.125 -5.5 L 7.859375 -12.890625 L 4.609375 -5.5 Z M 11.125 -5.5 "/></g></g></g><g fill="#fffff0" fill-opacity="0.4"><g transform="translate(110.035158, 285.504328)"><g><path d="M 2.265625 -15.078125 L 4.421875 -15.078125 L 4.421875 -1.875 L 12.578125 -1.875 L 12.578125 0 L 2.265625 0 Z M 2.265625 -15.078125 "/></g></g></g><g fill="#fffff0" fill-opacity="0.4"><g transform="translate(122.832241, 285.504328)"><g><path d="M 8.140625 -15.078125 C 10.097656 -15.078125 11.632812 -14.609375 12.75 -13.671875 C 13.875 -12.742188 14.4375 -11.460938 14.4375 -9.828125 C 14.4375 -8.191406 13.875 -6.90625 12.75 -5.96875 C 11.632812 -5.03125 10.097656 -4.5625 8.140625 -4.5625 L 4.421875 -4.5625 L 4.421875 0 L 2.265625 0 L 2.265625 -15.078125 Z M 8.078125 -6.4375 C 9.441406 -6.4375 10.484375 -6.726562 11.203125 -7.3125 C 11.921875 -7.894531 12.28125 -8.734375 12.28125 -9.828125 C 12.28125 -10.921875 11.921875 -11.753906 11.203125 -12.328125 C 10.484375 -12.910156 9.441406 -13.203125 8.078125 -13.203125 L 4.421875 -13.203125 L 4.421875 -6.4375 Z M 8.078125 -6.4375 "/></g></g></g><g fill="#fffff0" fill-opacity="0.4"><g transform="translate(138.386946, 285.504328)"><g><path d="M 15.234375 -15.078125 L 15.234375 0 L 13.078125 0 L 13.078125 -6.71875 L 4.421875 -6.71875 L 4.421875 0 L 2.265625 0 L 2.265625 -15.078125 L 4.421875 -15.078125 L 4.421875 -8.59375 L 13.078125 -8.59375 L 13.078125 -15.078125 Z M 15.234375 -15.078125 "/></g></g></g><g fill="#fffff0" fill-opacity="0.4"><g transform="translate(155.880613, 285.504328)"><g><path d="M 8.03125 -5.21875 L 8.03125 0 L 5.90625 0 L 5.90625 -5.25 L -0.09375 -15.078125 L 2.21875 -15.078125 L 7.046875 -7.125 L 11.890625 -15.078125 L 14.03125 -15.078125 Z M 8.03125 -5.21875 "/></g></g></g><g fill="#fffff0" fill-opacity="0.4"><g transform="translate(169.81953, 285.504328)"><g/></g></g><g fill="#5417d4" fill-opacity="1"><g transform="translate(48.586174, 284.399864)"><g><path d="M 13.203125 -1.875 L 13.203125 0 L 2.265625 0 L 2.265625 -15.078125 L 12.90625 -15.078125 L 12.90625 -13.203125 L 4.421875 -13.203125 L 4.421875 -8.578125 L 11.984375 -8.578125 L 11.984375 -6.75 L 4.421875 -6.75 L 4.421875 -1.875 Z M 13.203125 -1.875 "/></g></g></g><g fill="#5417d4" fill-opacity="1"><g transform="translate(63.020605, 284.399864)"><g><path d="M 15.234375 -15.078125 L 15.234375 0 L 13.46875 0 L 4.421875 -11.25 L 4.421875 0 L 2.265625 0 L 2.265625 -15.078125 L 4.03125 -15.078125 L 13.078125 -3.828125 L 13.078125 -15.078125 Z M 15.234375 -15.078125 "/></g></g></g><g fill="#5417d4" fill-opacity="1"><g transform="translate(80.514272, 284.399864)"><g><path d="M 5.25 -13.203125 L 0.09375 -13.203125 L 0.09375 -15.078125 L 12.5625 -15.078125 L 12.5625 -13.203125 L 7.390625 -13.203125 L 7.390625 0 L 5.25 0 Z M 5.25 -13.203125 "/></g></g></g><g fill="#5417d4" fill-opacity="1"><g transform="translate(93.160548, 284.399864)"><g><path d="M 11.875 -3.765625 L 3.859375 -3.765625 L 2.203125 0 L -0.015625 0 L 6.8125 -15.078125 L 8.9375 -15.078125 L 15.796875 0 L 13.53125 0 Z M 11.125 -5.5 L 7.859375 -12.890625 L 4.609375 -5.5 Z M 11.125 -5.5 "/></g></g></g><g fill="#5417d4" fill-opacity="1"><g transform="translate(108.930697, 284.399864)"><g><path d="M 2.265625 -15.078125 L 4.421875 -15.078125 L 4.421875 -1.875 L 12.578125 -1.875 L 12.578125 0 L 2.265625 0 Z M 2.265625 -15.078125 "/></g></g></g><g fill="#5417d4" fill-opacity="1"><g transform="translate(121.72778, 284.399864)"><g><path d="M 8.140625 -15.078125 C 10.097656 -15.078125 11.632812 -14.609375 12.75 -13.671875 C 13.875 -12.742188 14.4375 -11.460938 14.4375 -9.828125 C 14.4375 -8.191406 13.875 -6.90625 12.75 -5.96875 C 11.632812 -5.03125 10.097656 -4.5625 8.140625 -4.5625 L 4.421875 -4.5625 L 4.421875 0 L 2.265625 0 L 2.265625 -15.078125 Z M 8.078125 -6.4375 C 9.441406 -6.4375 10.484375 -6.726562 11.203125 -7.3125 C 11.921875 -7.894531 12.28125 -8.734375 12.28125 -9.828125 C 12.28125 -10.921875 11.921875 -11.753906 11.203125 -12.328125 C 10.484375 -12.910156 9.441406 -13.203125 8.078125 -13.203125 L 4.421875 -13.203125 L 4.421875 -6.4375 Z M 8.078125 -6.4375 "/></g></g></g><g fill="#5417d4" fill-opacity="1"><g transform="translate(137.282485, 284.399864)"><g><path d="M 15.234375 -15.078125 L 15.234375 0 L 13.078125 0 L 13.078125 -6.71875 L 4.421875 -6.71875 L 4.421875 0 L 2.265625 0 L 2.265625 -15.078125 L 4.421875 -15.078125 L 4.421875 -8.59375 L 13.078125 -8.59375 L 13.078125 -15.078125 Z M 15.234375 -15.078125 "/></g></g></g><g fill="#5417d4" fill-opacity="1"><g transform="translate(154.776152, 284.399864)"><g><path d="M 8.03125 -5.21875 L 8.03125 0 L 5.90625 0 L 5.90625 -5.25 L -0.09375 -15.078125 L 2.21875 -15.078125 L 7.046875 -7.125 L 11.890625 -15.078125 L 14.03125 -15.078125 Z M 8.03125 -5.21875 "/></g></g></g><g fill="#5417d4" fill-opacity="1"><g transform="translate(168.715069, 284.399864)"><g/></g></g><g fill="#fffff0" fill-opacity="0.4"><g transform="translate(175.602323, 285.504328)"><g><path d="M 2.265625 -15.078125 L 8.625 -15.078125 C 10.21875 -15.078125 11.628906 -14.757812 12.859375 -14.125 C 14.097656 -13.5 15.054688 -12.613281 15.734375 -11.46875 C 16.421875 -10.332031 16.765625 -9.023438 16.765625 -7.546875 C 16.765625 -6.066406 16.421875 -4.753906 15.734375 -3.609375 C 15.054688 -2.460938 14.097656 -1.570312 12.859375 -0.9375 C 11.628906 -0.3125 10.21875 0 8.625 0 L 2.265625 0 Z M 8.484375 -1.875 C 9.710938 -1.875 10.785156 -2.109375 11.703125 -2.578125 C 12.628906 -3.054688 13.34375 -3.722656 13.84375 -4.578125 C 14.351562 -5.429688 14.609375 -6.421875 14.609375 -7.546875 C 14.609375 -8.660156 14.351562 -9.644531 13.84375 -10.5 C 13.34375 -11.351562 12.628906 -12.015625 11.703125 -12.484375 C 10.785156 -12.960938 9.710938 -13.203125 8.484375 -13.203125 L 4.421875 -13.203125 L 4.421875 -1.875 Z M 8.484375 -1.875 "/></g></g></g><g fill="#fffff0" fill-opacity="0.4"><g transform="translate(193.397604, 285.504328)"><g><path d="M 13.203125 -1.875 L 13.203125 0 L 2.265625 0 L 2.265625 -15.078125 L 12.90625 -15.078125 L 12.90625 -13.203125 L 4.421875 -13.203125 L 4.421875 -8.578125 L 11.984375 -8.578125 L 11.984375 -6.75 L 4.421875 -6.75 L 4.421875 -1.875 Z M 13.203125 -1.875 "/></g></g></g><g fill="#fffff0" fill-opacity="0.4"><g transform="translate(207.832034, 285.504328)"><g><path d="M 15.359375 -15.078125 L 8.75 0 L 6.609375 0 L -0.015625 -15.078125 L 2.3125 -15.078125 L 7.734375 -2.6875 L 13.203125 -15.078125 Z M 15.359375 -15.078125 "/></g></g></g><g fill="#fffff0" fill-opacity="0.4"><g transform="translate(223.171309, 285.504328)"><g><path d="M 13.203125 -1.875 L 13.203125 0 L 2.265625 0 L 2.265625 -15.078125 L 12.90625 -15.078125 L 12.90625 -13.203125 L 4.421875 -13.203125 L 4.421875 -8.578125 L 11.984375 -8.578125 L 11.984375 -6.75 L 4.421875 -6.75 L 4.421875 -1.875 Z M 13.203125 -1.875 "/></g></g></g><g fill="#fffff0" fill-opacity="0.4"><g transform="translate(237.605739, 285.504328)"><g><path d="M 2.265625 -15.078125 L 4.421875 -15.078125 L 4.421875 -1.875 L 12.578125 -1.875 L 12.578125 0 L 2.265625 0 Z M 2.265625 -15.078125 "/></g></g></g><g fill="#fffff0" fill-opacity="0.4"><g transform="translate(250.402822, 285.504328)"><g><path d="M 9.078125 0.171875 C 7.546875 0.171875 6.171875 -0.160156 4.953125 -0.828125 C 3.734375 -1.492188 2.773438 -2.414062 2.078125 -3.59375 C 1.378906 -4.769531 1.03125 -6.085938 1.03125 -7.546875 C 1.03125 -8.992188 1.378906 -10.304688 2.078125 -11.484375 C 2.773438 -12.660156 3.734375 -13.582031 4.953125 -14.25 C 6.171875 -14.914062 7.546875 -15.25 9.078125 -15.25 C 10.578125 -15.25 11.9375 -14.914062 13.15625 -14.25 C 14.382812 -13.582031 15.34375 -12.660156 16.03125 -11.484375 C 16.71875 -10.316406 17.0625 -9.003906 17.0625 -7.546875 C 17.0625 -6.078125 16.71875 -4.753906 16.03125 -3.578125 C 15.34375 -2.410156 14.382812 -1.492188 13.15625 -0.828125 C 11.9375 -0.160156 10.578125 0.171875 9.078125 0.171875 Z M 9.078125 -1.75 C 10.179688 -1.75 11.171875 -2 12.046875 -2.5 C 12.929688 -3 13.628906 -3.691406 14.140625 -4.578125 C 14.648438 -5.460938 14.90625 -6.453125 14.90625 -7.546875 C 14.90625 -8.628906 14.648438 -9.613281 14.140625 -10.5 C 13.628906 -11.382812 12.929688 -12.078125 12.046875 -12.578125 C 11.171875 -13.085938 10.179688 -13.34375 9.078125 -13.34375 C 7.960938 -13.34375 6.957031 -13.085938 6.0625 -12.578125 C 5.164062 -12.078125 4.460938 -11.382812 3.953125 -10.5 C 3.441406 -9.613281 3.1875 -8.628906 3.1875 -7.546875 C 3.1875 -6.453125 3.441406 -5.460938 3.953125 -4.578125 C 4.460938 -3.691406 5.164062 -3 6.0625 -2.5 C 6.957031 -2 7.960938 -1.75 9.078125 -1.75 Z M 9.078125 -1.75 "/></g></g></g><g fill="#fffff0" fill-opacity="0.4"><g transform="translate(268.499718, 285.504328)"><g><path d="M 8.140625 -15.078125 C 10.097656 -15.078125 11.632812 -14.609375 12.75 -13.671875 C 13.875 -12.742188 14.4375 -11.460938 14.4375 -9.828125 C 14.4375 -8.191406 13.875 -6.90625 12.75 -5.96875 C 11.632812 -5.03125 10.097656 -4.5625 8.140625 -4.5625 L 4.421875 -4.5625 L 4.421875 0 L 2.265625 0 L 2.265625 -15.078125 Z M 8.078125 -6.4375 C 9.441406 -6.4375 10.484375 -6.726562 11.203125 -7.3125 C 11.921875 -7.894531 12.28125 -8.734375 12.28125 -9.828125 C 12.28125 -10.921875 11.921875 -11.753906 11.203125 -12.328125 C 10.484375 -12.910156 9.441406 -13.203125 8.078125 -13.203125 L 4.421875 -13.203125 L 4.421875 -6.4375 Z M 8.078125 -6.4375 "/></g></g></g><g fill="#fffff0" fill-opacity="0.4"><g transform="translate(284.054423, 285.504328)"><g><path d="M 13.203125 -1.875 L 13.203125 0 L 2.265625 0 L 2.265625 -15.078125 L 12.90625 -15.078125 L 12.90625 -13.203125 L 4.421875 -13.203125 L 4.421875 -8.578125 L 11.984375 -8.578125 L 11.984375 -6.75 L 4.421875 -6.75 L 4.421875 -1.875 Z M 13.203125 -1.875 "/></g></g></g><g fill="#fffff0" fill-opacity="0.4"><g transform="translate(298.488854, 285.504328)"><g><path d="M 12.34375 0 L 9.09375 -4.625 C 8.6875 -4.601562 8.367188 -4.59375 8.140625 -4.59375 L 4.421875 -4.59375 L 4.421875 0 L 2.265625 0 L 2.265625 -15.078125 L 8.140625 -15.078125 C 10.097656 -15.078125 11.632812 -14.609375 12.75 -13.671875 C 13.875 -12.742188 14.4375 -11.460938 14.4375 -9.828125 C 14.4375 -8.660156 14.148438 -7.664062 13.578125 -6.84375 C 13.003906 -6.03125 12.1875 -5.4375 11.125 -5.0625 L 14.6875 0 Z M 8.078125 -6.421875 C 9.441406 -6.421875 10.484375 -6.710938 11.203125 -7.296875 C 11.921875 -7.890625 12.28125 -8.734375 12.28125 -9.828125 C 12.28125 -10.921875 11.921875 -11.753906 11.203125 -12.328125 C 10.484375 -12.910156 9.441406 -13.203125 8.078125 -13.203125 L 4.421875 -13.203125 L 4.421875 -6.421875 Z M 8.078125 -6.421875 "/></g></g></g><g fill="#fffff0" fill-opacity="0.4"><g transform="translate(314.151288, 285.504328)"><g><path d="M 6.65625 0.171875 C 5.519531 0.171875 4.421875 -0.00390625 3.359375 -0.359375 C 2.304688 -0.710938 1.484375 -1.164062 0.890625 -1.71875 L 1.6875 -3.40625 C 2.257812 -2.882812 2.992188 -2.460938 3.890625 -2.140625 C 4.785156 -1.816406 5.707031 -1.65625 6.65625 -1.65625 C 7.90625 -1.65625 8.835938 -1.867188 9.453125 -2.296875 C 10.078125 -2.722656 10.390625 -3.285156 10.390625 -3.984375 C 10.390625 -4.503906 10.21875 -4.925781 9.875 -5.25 C 9.539062 -5.570312 9.125 -5.816406 8.625 -5.984375 C 8.132812 -6.160156 7.4375 -6.359375 6.53125 -6.578125 C 5.394531 -6.847656 4.476562 -7.117188 3.78125 -7.390625 C 3.082031 -7.660156 2.484375 -8.078125 1.984375 -8.640625 C 1.492188 -9.210938 1.25 -9.984375 1.25 -10.953125 C 1.25 -11.753906 1.457031 -12.476562 1.875 -13.125 C 2.300781 -13.769531 2.945312 -14.285156 3.8125 -14.671875 C 4.675781 -15.054688 5.75 -15.25 7.03125 -15.25 C 7.914062 -15.25 8.789062 -15.132812 9.65625 -14.90625 C 10.519531 -14.675781 11.257812 -14.347656 11.875 -13.921875 L 11.15625 -12.203125 C 10.53125 -12.597656 9.859375 -12.898438 9.140625 -13.109375 C 8.421875 -13.316406 7.71875 -13.421875 7.03125 -13.421875 C 5.800781 -13.421875 4.878906 -13.195312 4.265625 -12.75 C 3.660156 -12.3125 3.359375 -11.738281 3.359375 -11.03125 C 3.359375 -10.507812 3.53125 -10.085938 3.875 -9.765625 C 4.21875 -9.441406 4.644531 -9.191406 5.15625 -9.015625 C 5.664062 -8.835938 6.359375 -8.648438 7.234375 -8.453125 C 8.367188 -8.171875 9.28125 -7.894531 9.96875 -7.625 C 10.664062 -7.351562 11.257812 -6.9375 11.75 -6.375 C 12.25 -5.8125 12.5 -5.054688 12.5 -4.109375 C 12.5 -3.328125 12.28125 -2.609375 11.84375 -1.953125 C 11.414062 -1.296875 10.765625 -0.773438 9.890625 -0.390625 C 9.015625 -0.015625 7.9375 0.171875 6.65625 0.171875 Z M 6.65625 0.171875 "/></g></g></g><g fill="#ffffff" fill-opacity="1"><g transform="translate(174.497862, 284.399864)"><g><path d="M 2.265625 -15.078125 L 8.625 -15.078125 C 10.21875 -15.078125 11.628906 -14.757812 12.859375 -14.125 C 14.097656 -13.5 15.054688 -12.613281 15.734375 -11.46875 C 16.421875 -10.332031 16.765625 -9.023438 16.765625 -7.546875 C 16.765625 -6.066406 16.421875 -4.753906 15.734375 -3.609375 C 15.054688 -2.460938 14.097656 -1.570312 12.859375 -0.9375 C 11.628906 -0.3125 10.21875 0 8.625 0 L 2.265625 0 Z M 8.484375 -1.875 C 9.710938 -1.875 10.785156 -2.109375 11.703125 -2.578125 C 12.628906 -3.054688 13.34375 -3.722656 13.84375 -4.578125 C 14.351562 -5.429688 14.609375 -6.421875 14.609375 -7.546875 C 14.609375 -8.660156 14.351562 -9.644531 13.84375 -10.5 C 13.34375 -11.351562 12.628906 -12.015625 11.703125 -12.484375 C 10.785156 -12.960938 9.710938 -13.203125 8.484375 -13.203125 L 4.421875 -13.203125 L 4.421875 -1.875 Z M 8.484375 -1.875 "/></g></g></g><g fill="#ffffff" fill-opacity="1"><g transform="translate(192.293143, 284.399864)"><g><path d="M 13.203125 -1.875 L 13.203125 0 L 2.265625 0 L 2.265625 -15.078125 L 12.90625 -15.078125 L 12.90625 -13.203125 L 4.421875 -13.203125 L 4.421875 -8.578125 L 11.984375 -8.578125 L 11.984375 -6.75 L 4.421875 -6.75 L 4.421875 -1.875 Z M 13.203125 -1.875 "/></g></g></g><g fill="#ffffff" fill-opacity="1"><g transform="translate(206.727574, 284.399864)"><g><path d="M 15.359375 -15.078125 L 8.75 0 L 6.609375 0 L -0.015625 -15.078125 L 2.3125 -15.078125 L 7.734375 -2.6875 L 13.203125 -15.078125 Z M 15.359375 -15.078125 "/></g></g></g><g fill="#ffffff" fill-opacity="1"><g transform="translate(222.066848, 284.399864)"><g><path d="M 13.203125 -1.875 L 13.203125 0 L 2.265625 0 L 2.265625 -15.078125 L 12.90625 -15.078125 L 12.90625 -13.203125 L 4.421875 -13.203125 L 4.421875 -8.578125 L 11.984375 -8.578125 L 11.984375 -6.75 L 4.421875 -6.75 L 4.421875 -1.875 Z M 13.203125 -1.875 "/></g></g></g><g fill="#ffffff" fill-opacity="1"><g transform="translate(236.501278, 284.399864)"><g><path d="M 2.265625 -15.078125 L 4.421875 -15.078125 L 4.421875 -1.875 L 12.578125 -1.875 L 12.578125 0 L 2.265625 0 Z M 2.265625 -15.078125 "/></g></g></g><g fill="#ffffff" fill-opacity="1"><g transform="translate(249.298361, 284.399864)"><g><path d="M 9.078125 0.171875 C 7.546875 0.171875 6.171875 -0.160156 4.953125 -0.828125 C 3.734375 -1.492188 2.773438 -2.414062 2.078125 -3.59375 C 1.378906 -4.769531 1.03125 -6.085938 1.03125 -7.546875 C 1.03125 -8.992188 1.378906 -10.304688 2.078125 -11.484375 C 2.773438 -12.660156 3.734375 -13.582031 4.953125 -14.25 C 6.171875 -14.914062 7.546875 -15.25 9.078125 -15.25 C 10.578125 -15.25 11.9375 -14.914062 13.15625 -14.25 C 14.382812 -13.582031 15.34375 -12.660156 16.03125 -11.484375 C 16.71875 -10.316406 17.0625 -9.003906 17.0625 -7.546875 C 17.0625 -6.078125 16.71875 -4.753906 16.03125 -3.578125 C 15.34375 -2.410156 14.382812 -1.492188 13.15625 -0.828125 C 11.9375 -0.160156 10.578125 0.171875 9.078125 0.171875 Z M 9.078125 -1.75 C 10.179688 -1.75 11.171875 -2 12.046875 -2.5 C 12.929688 -3 13.628906 -3.691406 14.140625 -4.578125 C 14.648438 -5.460938 14.90625 -6.453125 14.90625 -7.546875 C 14.90625 -8.628906 14.648438 -9.613281 14.140625 -10.5 C 13.628906 -11.382812 12.929688 -12.078125 12.046875 -12.578125 C 11.171875 -13.085938 10.179688 -13.34375 9.078125 -13.34375 C 7.960938 -13.34375 6.957031 -13.085938 6.0625 -12.578125 C 5.164062 -12.078125 4.460938 -11.382812 3.953125 -10.5 C 3.441406 -9.613281 3.1875 -8.628906 3.1875 -7.546875 C 3.1875 -6.453125 3.441406 -5.460938 3.953125 -4.578125 C 4.460938 -3.691406 5.164062 -3 6.0625 -2.5 C 6.957031 -2 7.960938 -1.75 9.078125 -1.75 Z M 9.078125 -1.75 "/></g></g></g><g fill="#ffffff" fill-opacity="1"><g transform="translate(267.395257, 284.399864)"><g><path d="M 8.140625 -15.078125 C 10.097656 -15.078125 11.632812 -14.609375 12.75 -13.671875 C 13.875 -12.742188 14.4375 -11.460938 14.4375 -9.828125 C 14.4375 -8.191406 13.875 -6.90625 12.75 -5.96875 C 11.632812 -5.03125 10.097656 -4.5625 8.140625 -4.5625 L 4.421875 -4.5625 L 4.421875 0 L 2.265625 0 L 2.265625 -15.078125 Z M 8.078125 -6.4375 C 9.441406 -6.4375 10.484375 -6.726562 11.203125 -7.3125 C 11.921875 -7.894531 12.28125 -8.734375 12.28125 -9.828125 C 12.28125 -10.921875 11.921875 -11.753906 11.203125 -12.328125 C 10.484375 -12.910156 9.441406 -13.203125 8.078125 -13.203125 L 4.421875 -13.203125 L 4.421875 -6.4375 Z M 8.078125 -6.4375 "/></g></g></g><g fill="#ffffff" fill-opacity="1"><g transform="translate(282.949962, 284.399864)"><g><path d="M 13.203125 -1.875 L 13.203125 0 L 2.265625 0 L 2.265625 -15.078125 L 12.90625 -15.078125 L 12.90625 -13.203125 L 4.421875 -13.203125 L 4.421875 -8.578125 L 11.984375 -8.578125 L 11.984375 -6.75 L 4.421875 -6.75 L 4.421875 -1.875 Z M 13.203125 -1.875 "/></g></g></g><g fill="#ffffff" fill-opacity="1"><g transform="translate(297.384393, 284.399864)"><g><path d="M 12.34375 0 L 9.09375 -4.625 C 8.6875 -4.601562 8.367188 -4.59375 8.140625 -4.59375 L 4.421875 -4.59375 L 4.421875 0 L 2.265625 0 L 2.265625 -15.078125 L 8.140625 -15.078125 C 10.097656 -15.078125 11.632812 -14.609375 12.75 -13.671875 C 13.875 -12.742188 14.4375 -11.460938 14.4375 -9.828125 C 14.4375 -8.660156 14.148438 -7.664062 13.578125 -6.84375 C 13.003906 -6.03125 12.1875 -5.4375 11.125 -5.0625 L 14.6875 0 Z M 8.078125 -6.421875 C 9.441406 -6.421875 10.484375 -6.710938 11.203125 -7.296875 C 11.921875 -7.890625 12.28125 -8.734375 12.28125 -9.828125 C 12.28125 -10.921875 11.921875 -11.753906 11.203125 -12.328125 C 10.484375 -12.910156 9.441406 -13.203125 8.078125 -13.203125 L 4.421875 -13.203125 L 4.421875 -6.421875 Z M 8.078125 -6.421875 "/></g></g></g><g fill="#ffffff" fill-opacity="1"><g transform="translate(313.046827, 284.399864)"><g><path d="M 6.65625 0.171875 C 5.519531 0.171875 4.421875 -0.00390625 3.359375 -0.359375 C 2.304688 -0.710938 1.484375 -1.164062 0.890625 -1.71875 L 1.6875 -3.40625 C 2.257812 -2.882812 2.992188 -2.460938 3.890625 -2.140625 C 4.785156 -1.816406 5.707031 -1.65625 6.65625 -1.65625 C 7.90625 -1.65625 8.835938 -1.867188 9.453125 -2.296875 C 10.078125 -2.722656 10.390625 -3.285156 10.390625 -3.984375 C 10.390625 -4.503906 10.21875 -4.925781 9.875 -5.25 C 9.539062 -5.570312 9.125 -5.816406 8.625 -5.984375 C 8.132812 -6.160156 7.4375 -6.359375 6.53125 -6.578125 C 5.394531 -6.847656 4.476562 -7.117188 3.78125 -7.390625 C 3.082031 -7.660156 2.484375 -8.078125 1.984375 -8.640625 C 1.492188 -9.210938 1.25 -9.984375 1.25 -10.953125 C 1.25 -11.753906 1.457031 -12.476562 1.875 -13.125 C 2.300781 -13.769531 2.945312 -14.285156 3.8125 -14.671875 C 4.675781 -15.054688 5.75 -15.25 7.03125 -15.25 C 7.914062 -15.25 8.789062 -15.132812 9.65625 -14.90625 C 10.519531 -14.675781 11.257812 -14.347656 11.875 -13.921875 L 11.15625 -12.203125 C 10.53125 -12.597656 9.859375 -12.898438 9.140625 -13.109375 C 8.421875 -13.316406 7.71875 -13.421875 7.03125 -13.421875 C 5.800781 -13.421875 4.878906 -13.195312 4.265625 -12.75 C 3.660156 -12.3125 3.359375 -11.738281 3.359375 -11.03125 C 3.359375 -10.507812 3.53125 -10.085938 3.875 -9.765625 C 4.21875 -9.441406 4.644531 -9.191406 5.15625 -9.015625 C 5.664062 -8.835938 6.359375 -8.648438 7.234375 -8.453125 C 8.367188 -8.171875 9.28125 -7.894531 9.96875 -7.625 C 10.664062 -7.351562 11.257812 -6.9375 11.75 -6.375 C 12.25 -5.8125 12.5 -5.054688 12.5 -4.109375 C 12.5 -3.328125 12.28125 -2.609375 11.84375 -1.953125 C 11.414062 -1.296875 10.765625 -0.773438 9.890625 -0.390625 C 9.015625 -0.015625 7.9375 0.171875 6.65625 0.171875 Z M 6.65625 0.171875 "/></g></g></g></svg>