<svg xmlns="http://www.w3.org/2000/svg" xmlns:xlink="http://www.w3.org/1999/xlink" width="500" zoomAndPan="magnify" viewBox="0 0 375 262.499992" height="350" preserveAspectRatio="xMidYMid meet" version="1.0"><defs><g/></defs><g fill="#ffffff" fill-opacity="1"><g transform="translate(0.356469, 185.101394)"><g><path d="M 73.074219 -94.6875 C 74.101562 -94.6875 77.449219 -90.570312 80.535156 -85.9375 C 88.253906 -73.589844 102.40625 -57.121094 114.5 -43.742188 C 101.636719 -40.398438 45.542969 -40.652344 42.453125 -42.96875 C 44 -47.34375 68.441406 -82.851562 69.214844 -87.996094 C 70.5 -91.601562 72.300781 -94.6875 73.074219 -94.6875 Z M 149.492188 -39.625 C 149.492188 -45.285156 147.691406 -47.859375 137.144531 -56.605469 C 123.503906 -67.929688 93.660156 -105.238281 87.996094 -118.359375 C 79.507812 -137.65625 76.160156 -142.804688 70.242188 -145.375 C 64.839844 -147.433594 63.039062 -147.433594 59.179688 -144.605469 C 56.605469 -142.546875 50.6875 -131.738281 46.316406 -120.417969 C 38.851562 -100.863281 20.070312 -67.929688 15.953125 -48.886719 C 14.921875 -44.257812 13.378906 -38.082031 11.835938 -35.507812 C 10.292969 -32.933594 9.777344 -30.875 10.550781 -30.875 C 13.636719 -30.875 4.632812 -26.757812 9.003906 -26.757812 C 12.863281 -26.757812 10.808594 -21.097656 14.667969 -19.8125 C 20.070312 -18.269531 101.121094 -18.269531 117.074219 -20.585938 C 138.429688 -23.671875 139.714844 -24.1875 144.863281 -28.816406 C 147.691406 -31.390625 149.492188 -35.507812 149.492188 -39.625 Z M 149.492188 -39.625 "/></g></g></g><g fill="#ffffff" fill-opacity="1"><g transform="translate(157.577395, 131.300924)"><g><path d="M 86.546875 -90.40625 C 86.546875 -90.640625 86.429688 -90.875 86.195312 -91.222656 C 85.84375 -91.339844 85.492188 -91.574219 86.3125 -94.617188 C 87.363281 -97.773438 87.132812 -99.175781 86.3125 -99.761719 C 85.726562 -99.996094 85.144531 -100.113281 84.441406 -100.113281 C 83.972656 -100.113281 83.621094 -100.113281 83.273438 -99.996094 C 81.050781 -99.527344 78.59375 -97.070312 78.125 -95.199219 C 77.65625 -93.445312 76.722656 -89.820312 75.085938 -86.3125 C 74.265625 -84.207031 73.214844 -80.113281 72.394531 -76.605469 C 70.757812 -71.226562 68.886719 -64.675781 67.714844 -59.179688 C 66.898438 -56.253906 65.960938 -52.980469 65.496094 -50.757812 C 65.027344 -48.066406 64.324219 -45.847656 64.089844 -44.207031 C 62.570312 -43.625 59.878906 -43.625 58.359375 -43.625 C 55.085938 -43.625 51.8125 -43.507812 48.535156 -43.390625 L 45.261719 -43.273438 C 43.507812 -43.273438 42.105469 -43.273438 40.933594 -43.390625 L 37.425781 -43.390625 L 35.554688 -43.507812 C 35.4375 -44.09375 35.789062 -45.027344 36.023438 -46.078125 C 36.488281 -47.484375 36.722656 -48.769531 36.957031 -50.171875 C 36.722656 -50.523438 36.957031 -50.875 36.957031 -50.875 C 37.191406 -51.226562 37.191406 -51.578125 37.777344 -52.277344 C 37.894531 -53.449219 38.011719 -53.800781 37.660156 -54.265625 C 37.191406 -54.382812 37.191406 -54.382812 37.308594 -54.617188 C 38.828125 -60.699219 39.296875 -64.558594 39.414062 -67.949219 C 39.296875 -68.417969 39.414062 -69.472656 39.179688 -70.171875 C 39.296875 -70.640625 38.945312 -71.34375 38.828125 -72.042969 L 38.476562 -72.511719 L 38.242188 -71.34375 C 38.128906 -70.523438 38.128906 -70.289062 37.894531 -70.289062 C 37.660156 -70.757812 37.425781 -71.460938 37.777344 -73.332031 C 38.242188 -76.488281 38.945312 -82.570312 38.710938 -84.558594 C 38.945312 -86.78125 38.945312 -89.234375 38.828125 -91.574219 C 38.828125 -96.605469 38.59375 -97.421875 37.308594 -99.175781 C 36.140625 -102.453125 33.214844 -106.429688 29.355469 -106.429688 C 28.535156 -106.429688 27.71875 -106.3125 27.015625 -106.078125 C 24.910156 -105.960938 23.507812 -104.441406 23.507812 -102.335938 L 23.039062 -100.699219 C 21.167969 -90.875 19.648438 -80.933594 18.246094 -70.992188 C 18.011719 -69.589844 17.894531 -68.417969 17.894531 -67.832031 C 17.308594 -64.207031 16.839844 -60.230469 16.492188 -58.242188 C 16.257812 -56.136719 15.554688 -52.628906 15.085938 -49.003906 C 14.734375 -45.847656 14.386719 -42.570312 14.152344 -42.6875 C 14.035156 -42.335938 12.980469 -42.105469 12.046875 -42.105469 C 10.644531 -41.871094 9.589844 -41.402344 8.886719 -41.167969 L 6.316406 -40.230469 C 6.082031 -39.882812 5.964844 -39.882812 5.847656 -39.882812 C 5.496094 -39.882812 5.378906 -40.699219 5.027344 -40.699219 C 4.796875 -40.699219 4.5625 -40.582031 4.210938 -40 C 3.039062 -39.179688 2.222656 -38.359375 1.753906 -37.894531 C 1.519531 -37.894531 1.285156 -37.894531 1.167969 -37.894531 C 0.703125 -37.894531 0.585938 -37.777344 0.46875 -37.542969 C 0.351562 -36.957031 0.234375 -38.128906 -0.351562 -38.128906 C -0.351562 -38.128906 -0.46875 -38.128906 -0.585938 -38.011719 C -1.167969 -36.488281 -1.753906 -35.4375 -1.636719 -34.152344 C -1.519531 -34.035156 -0.9375 -33.917969 -0.234375 -33.917969 C 0.117188 -33.917969 0.351562 -33.917969 0.585938 -33.917969 C 0.9375 -34.035156 1.167969 -34.152344 1.402344 -34.152344 C 1.636719 -34.152344 1.753906 -34.035156 1.988281 -33.917969 C 2.457031 -33.566406 2.808594 -33.332031 3.15625 -33.332031 C 3.859375 -33.332031 4.796875 -33.683594 6.785156 -34.5 C 8.886719 -35.554688 9.824219 -35.671875 11.226562 -35.671875 C 11.460938 -35.671875 11.929688 -35.671875 12.164062 -35.789062 C 12.398438 -35.671875 12.515625 -35.789062 12.863281 -35.90625 C 13.332031 -35.554688 10.875 -25.730469 10.058594 -22.570312 C 7.601562 -12.28125 5.730469 -4.910156 4.210938 0.46875 C 2.925781 4.5625 2.105469 7.367188 1.285156 9.355469 C 0.703125 10.527344 -0.117188 12.515625 -0.351562 13.917969 C -0.585938 14.96875 -0.585938 15.320312 -1.050781 15.320312 C -1.167969 15.320312 -1.285156 15.320312 -1.402344 15.320312 C -2.222656 15.320312 -2.339844 15.671875 -2.105469 16.023438 C -1.753906 16.023438 -2.339844 16.609375 -3.15625 16.957031 C -3.976562 17.777344 -4.679688 18.480469 -5.027344 19.296875 C -5.027344 19.882812 -4.910156 20.585938 -4.679688 21.167969 C -4.5625 22.105469 -3.859375 22.6875 -2.691406 22.6875 C -2.457031 22.6875 -2.105469 22.6875 -1.753906 22.570312 L -1.050781 22.339844 C 0 22.339844 0.820312 22.457031 1.753906 22.921875 C 1.753906 23.273438 2.222656 23.507812 2.925781 23.507812 C 3.15625 23.507812 3.507812 23.390625 3.859375 23.390625 L 5.261719 22.921875 C 5.730469 22.570312 6.550781 22.222656 7.132812 22.222656 C 8.65625 21.871094 10.292969 21.050781 11.695312 20 C 12.632812 19.414062 13.917969 18.597656 15.320312 17.542969 C 16.609375 16.609375 17.660156 15.554688 17.894531 15.554688 C 18.246094 15.554688 18.246094 15.320312 18.597656 15.4375 C 18.597656 15.203125 19.0625 14.621094 19.296875 14.386719 C 22.339844 10.175781 23.859375 7.25 25.730469 1.753906 C 29.355469 -7.015625 32.746094 -23.273438 33.097656 -32.628906 C 33.214844 -33.214844 33.214844 -33.800781 33.097656 -34.152344 C 33.332031 -34.851562 33.449219 -35.671875 33.449219 -36.371094 C 34.851562 -36.722656 37.191406 -36.957031 39.53125 -36.957031 C 40 -36.957031 40.464844 -36.957031 40.933594 -36.957031 C 42.21875 -36.957031 43.507812 -36.839844 44.792969 -36.839844 C 46.898438 -36.839844 48.652344 -36.957031 49.824219 -37.191406 C 51.34375 -37.777344 52.511719 -37.777344 54.148438 -37.777344 C 56.136719 -37.777344 59.996094 -37.894531 61.867188 -38.710938 C 62.453125 -38.59375 62.804688 -37.660156 62.453125 -36.140625 C 59.414062 -23.742188 57.308594 -11.109375 55.554688 1.519531 C 54.5 13.214844 53.800781 18.011719 53.332031 22.457031 C 53.332031 23.859375 53.683594 25.144531 54.148438 26.199219 C 54.5 27.132812 54.96875 27.953125 55.554688 28.652344 C 56.136719 29.238281 56.722656 29.589844 57.308594 29.589844 C 57.542969 29.589844 57.660156 29.589844 57.890625 29.472656 C 58.710938 29.355469 59.296875 29.238281 60.347656 28.886719 L 60.347656 28.652344 C 60.464844 28.421875 60.699219 28.1875 61.167969 27.71875 C 63.273438 26.546875 64.324219 25.144531 64.910156 23.390625 C 65.027344 22.457031 65.726562 21.519531 66.195312 20.699219 C 66.546875 19.53125 66.898438 19.296875 67.949219 19.179688 C 68.183594 19.179688 68.535156 18.828125 68.652344 18.011719 C 68.769531 17.894531 68.769531 17.425781 68.535156 17.425781 L 68.769531 16.492188 C 68.886719 15.671875 69.589844 15.085938 69.589844 15.085938 C 69.703125 15.203125 71.34375 10.292969 71.691406 8.304688 C 71.808594 7.484375 72.160156 7.25 72.160156 7.601562 C 72.042969 7.953125 72.042969 8.070312 72.160156 8.1875 L 72.160156 7.601562 L 72.746094 6.667969 C 73.5625 5.144531 73.796875 3.273438 73.332031 2.222656 C 73.332031 1.753906 73.449219 0.820312 73.679688 -0.9375 C 74.03125 -5.378906 74.148438 -8.421875 73.914062 -11.8125 C 73.332031 -12.515625 73.449219 -12.863281 73.914062 -15.203125 C 74.148438 -17.191406 74.851562 -20 75.320312 -22.105469 L 77.074219 -30.992188 C 77.539062 -35.671875 78.125 -36.023438 78.242188 -36.605469 C 78.945312 -37.191406 79.878906 -37.425781 80.699219 -37.425781 C 81.867188 -37.425781 83.15625 -37.074219 84.207031 -37.074219 C 85.492188 -37.074219 86.664062 -37.542969 87.480469 -39.296875 C 88.417969 -39.53125 89.003906 -40.117188 89.585938 -40.933594 C 89.585938 -41.167969 89.703125 -41.402344 89.820312 -41.636719 C 89.703125 -42.105469 89.46875 -42.453125 89.121094 -42.804688 C 89.234375 -42.804688 89.234375 -42.804688 89.003906 -42.921875 C 89.003906 -42.804688 89.003906 -43.273438 88.886719 -43.273438 C 88.886719 -43.625 88.886719 -43.625 87.832031 -43.625 C 87.597656 -43.507812 87.363281 -43.507812 87.015625 -43.507812 C 86.546875 -43.507812 81.867188 -44.675781 81.285156 -44.792969 L 78.828125 -44.675781 L 79.296875 -49.355469 C 79.644531 -53.214844 79.878906 -55.902344 79.761719 -57.308594 C 79.644531 -57.777344 79.761719 -58.476562 79.878906 -59.648438 L 80.230469 -61.167969 C 80.464844 -62.6875 80.933594 -63.972656 81.050781 -64.324219 L 81.398438 -69.355469 C 81.167969 -69.820312 81.984375 -72.042969 82.570312 -73.914062 C 83.15625 -75.203125 83.15625 -75.785156 82.804688 -76.371094 L 82.921875 -79.296875 L 83.273438 -81.75 C 83.621094 -82.921875 84.089844 -83.972656 84.207031 -84.675781 C 84.207031 -84.910156 84.324219 -85.027344 84.207031 -85.144531 C 84.207031 -85.84375 85.261719 -88.769531 85.492188 -88.769531 C 85.492188 -88.769531 85.609375 -88.769531 85.726562 -88.652344 C 86.078125 -89.003906 86.429688 -89.234375 86.664062 -89.351562 C 86.546875 -89.585938 86.546875 -89.820312 86.664062 -90.289062 Z M 86.546875 -90.40625 "/></g></g></g><g fill="#ffffff" fill-opacity="0.4"><g transform="translate(249.588277, 159.973009)"><g><path d="M 4.90625 -32.75 L 18.71875 -32.75 C 22.175781 -32.75 25.242188 -32.0625 27.921875 -30.6875 C 30.609375 -29.3125 32.691406 -27.382812 34.171875 -24.90625 C 35.648438 -22.425781 36.390625 -19.582031 36.390625 -16.375 C 36.390625 -13.164062 35.648438 -10.316406 34.171875 -7.828125 C 32.691406 -5.347656 30.609375 -3.421875 27.921875 -2.046875 C 25.242188 -0.679688 22.175781 0 18.71875 0 L 4.90625 0 Z M 18.4375 -4.0625 C 21.082031 -4.0625 23.410156 -4.578125 25.421875 -5.609375 C 27.429688 -6.640625 28.984375 -8.082031 30.078125 -9.9375 C 31.171875 -11.789062 31.71875 -13.9375 31.71875 -16.375 C 31.71875 -18.800781 31.171875 -20.941406 30.078125 -22.796875 C 28.984375 -24.660156 27.429688 -26.101562 25.421875 -27.125 C 23.410156 -28.15625 21.082031 -28.671875 18.4375 -28.671875 L 9.59375 -28.671875 L 9.59375 -4.0625 Z M 18.4375 -4.0625 "/></g></g></g><g fill="#ffffff" fill-opacity="0.4"><g transform="translate(294.917461, 159.973009)"><g><path d="M 28.671875 -4.0625 L 28.671875 0 L 4.90625 0 L 4.90625 -32.75 L 28.015625 -32.75 L 28.015625 -28.671875 L 9.59375 -28.671875 L 9.59375 -18.625 L 26.015625 -18.625 L 26.015625 -14.640625 L 9.59375 -14.640625 L 9.59375 -4.0625 Z M 28.671875 -4.0625 "/></g></g></g><g fill="#ffffff" fill-opacity="0.4"><g transform="translate(332.949157, 159.973009)"><g><path d="M 33.359375 -32.75 L 19 0 L 14.359375 0 L -0.046875 -32.75 L 5 -32.75 L 16.796875 -5.84375 L 28.671875 -32.75 Z M 33.359375 -32.75 "/></g></g></g><g fill="#004aad" fill-opacity="1"><g transform="translate(246.776446, 157.161163)"><g><path d="M 4.90625 -32.75 L 18.71875 -32.75 C 22.175781 -32.75 25.242188 -32.0625 27.921875 -30.6875 C 30.609375 -29.3125 32.691406 -27.382812 34.171875 -24.90625 C 35.648438 -22.425781 36.390625 -19.582031 36.390625 -16.375 C 36.390625 -13.164062 35.648438 -10.316406 34.171875 -7.828125 C 32.691406 -5.347656 30.609375 -3.421875 27.921875 -2.046875 C 25.242188 -0.679688 22.175781 0 18.71875 0 L 4.90625 0 Z M 18.4375 -4.0625 C 21.082031 -4.0625 23.410156 -4.578125 25.421875 -5.609375 C 27.429688 -6.640625 28.984375 -8.082031 30.078125 -9.9375 C 31.171875 -11.789062 31.71875 -13.9375 31.71875 -16.375 C 31.71875 -18.800781 31.171875 -20.941406 30.078125 -22.796875 C 28.984375 -24.660156 27.429688 -26.101562 25.421875 -27.125 C 23.410156 -28.15625 21.082031 -28.671875 18.4375 -28.671875 L 9.59375 -28.671875 L 9.59375 -4.0625 Z M 18.4375 -4.0625 "/></g></g></g><g fill="#004aad" fill-opacity="1"><g transform="translate(292.10563, 157.161163)"><g><path d="M 28.671875 -4.0625 L 28.671875 0 L 4.90625 0 L 4.90625 -32.75 L 28.015625 -32.75 L 28.015625 -28.671875 L 9.59375 -28.671875 L 9.59375 -18.625 L 26.015625 -18.625 L 26.015625 -14.640625 L 9.59375 -14.640625 L 9.59375 -4.0625 Z M 28.671875 -4.0625 "/></g></g></g><g fill="#004aad" fill-opacity="1"><g transform="translate(330.137326, 157.161163)"><g><path d="M 33.359375 -32.75 L 19 0 L 14.359375 0 L -0.046875 -32.75 L 5 -32.75 L 16.796875 -5.84375 L 28.671875 -32.75 Z M 33.359375 -32.75 "/></g></g></g><g fill="#fffff0" fill-opacity="0.4"><g transform="translate(184.649359, 191.804777)"><g/></g></g><g fill="#ffffff" fill-opacity="1"><g transform="translate(183.570109, 190.725529)"><g/></g></g><g fill="#fffff0" fill-opacity="0.4"><g transform="translate(48.928323, 221.120154)"><g><path d="M 12.90625 -1.828125 L 12.90625 0 L 2.203125 0 L 2.203125 -14.734375 L 12.609375 -14.734375 L 12.609375 -12.90625 L 4.3125 -12.90625 L 4.3125 -8.375 L 11.703125 -8.375 L 11.703125 -6.59375 L 4.3125 -6.59375 L 4.3125 -1.828125 Z M 12.90625 -1.828125 "/></g></g></g><g fill="#fffff0" fill-opacity="0.4"><g transform="translate(63.030141, 221.120154)"><g><path d="M 14.875 -14.734375 L 14.875 0 L 13.15625 0 L 4.3125 -10.984375 L 4.3125 0 L 2.203125 0 L 2.203125 -14.734375 L 3.9375 -14.734375 L 12.78125 -3.75 L 12.78125 -14.734375 Z M 14.875 -14.734375 "/></g></g></g><g fill="#fffff0" fill-opacity="0.4"><g transform="translate(80.12071, 221.120154)"><g><path d="M 5.140625 -12.90625 L 0.078125 -12.90625 L 0.078125 -14.734375 L 12.265625 -14.734375 L 12.265625 -12.90625 L 7.21875 -12.90625 L 7.21875 0 L 5.140625 0 Z M 5.140625 -12.90625 "/></g></g></g><g fill="#fffff0" fill-opacity="0.4"><g transform="translate(92.475588, 221.120154)"><g><path d="M 11.59375 -3.6875 L 3.765625 -3.6875 L 2.140625 0 L -0.015625 0 L 6.65625 -14.734375 L 8.734375 -14.734375 L 15.421875 0 L 13.21875 0 Z M 10.859375 -5.359375 L 7.6875 -12.59375 L 4.5 -5.359375 Z M 10.859375 -5.359375 "/></g></g></g><g fill="#fffff0" fill-opacity="0.4"><g transform="translate(107.882354, 221.120154)"><g><path d="M 2.203125 -14.734375 L 4.3125 -14.734375 L 4.3125 -1.828125 L 12.296875 -1.828125 L 12.296875 0 L 2.203125 0 Z M 2.203125 -14.734375 "/></g></g></g><g fill="#fffff0" fill-opacity="0.4"><g transform="translate(120.384566, 221.120154)"><g><path d="M 7.953125 -14.734375 C 9.859375 -14.734375 11.359375 -14.273438 12.453125 -13.359375 C 13.546875 -12.453125 14.09375 -11.195312 14.09375 -9.59375 C 14.09375 -8 13.546875 -6.742188 12.453125 -5.828125 C 11.359375 -4.921875 9.859375 -4.46875 7.953125 -4.46875 L 4.3125 -4.46875 L 4.3125 0 L 2.203125 0 L 2.203125 -14.734375 Z M 7.890625 -6.296875 C 9.222656 -6.296875 10.238281 -6.578125 10.9375 -7.140625 C 11.644531 -7.710938 12 -8.53125 12 -9.59375 C 12 -10.664062 11.644531 -11.484375 10.9375 -12.046875 C 10.238281 -12.617188 9.222656 -12.90625 7.890625 -12.90625 L 4.3125 -12.90625 L 4.3125 -6.296875 Z M 7.890625 -6.296875 "/></g></g></g><g fill="#fffff0" fill-opacity="0.4"><g transform="translate(135.580858, 221.120154)"><g><path d="M 14.875 -14.734375 L 14.875 0 L 12.78125 0 L 12.78125 -6.5625 L 4.3125 -6.5625 L 4.3125 0 L 2.203125 0 L 2.203125 -14.734375 L 4.3125 -14.734375 L 4.3125 -8.390625 L 12.78125 -8.390625 L 12.78125 -14.734375 Z M 14.875 -14.734375 "/></g></g></g><g fill="#fffff0" fill-opacity="0.4"><g transform="translate(152.671426, 221.120154)"><g><path d="M 7.84375 -5.09375 L 7.84375 0 L 5.765625 0 L 5.765625 -5.140625 L -0.078125 -14.734375 L 2.171875 -14.734375 L 6.875 -6.96875 L 11.625 -14.734375 L 13.703125 -14.734375 Z M 7.84375 -5.09375 "/></g></g></g><g fill="#fffff0" fill-opacity="0.4"><g transform="translate(166.289159, 221.120154)"><g/></g></g><g fill="#004aad" fill-opacity="1"><g transform="translate(47.849073, 220.040907)"><g><path d="M 12.90625 -1.828125 L 12.90625 0 L 2.203125 0 L 2.203125 -14.734375 L 12.609375 -14.734375 L 12.609375 -12.90625 L 4.3125 -12.90625 L 4.3125 -8.375 L 11.703125 -8.375 L 11.703125 -6.59375 L 4.3125 -6.59375 L 4.3125 -1.828125 Z M 12.90625 -1.828125 "/></g></g></g><g fill="#004aad" fill-opacity="1"><g transform="translate(61.950892, 220.040907)"><g><path d="M 14.875 -14.734375 L 14.875 0 L 13.15625 0 L 4.3125 -10.984375 L 4.3125 0 L 2.203125 0 L 2.203125 -14.734375 L 3.9375 -14.734375 L 12.78125 -3.75 L 12.78125 -14.734375 Z M 14.875 -14.734375 "/></g></g></g><g fill="#004aad" fill-opacity="1"><g transform="translate(79.04146, 220.040907)"><g><path d="M 5.140625 -12.90625 L 0.078125 -12.90625 L 0.078125 -14.734375 L 12.265625 -14.734375 L 12.265625 -12.90625 L 7.21875 -12.90625 L 7.21875 0 L 5.140625 0 Z M 5.140625 -12.90625 "/></g></g></g><g fill="#004aad" fill-opacity="1"><g transform="translate(91.396338, 220.040907)"><g><path d="M 11.59375 -3.6875 L 3.765625 -3.6875 L 2.140625 0 L -0.015625 0 L 6.65625 -14.734375 L 8.734375 -14.734375 L 15.421875 0 L 13.21875 0 Z M 10.859375 -5.359375 L 7.6875 -12.59375 L 4.5 -5.359375 Z M 10.859375 -5.359375 "/></g></g></g><g fill="#004aad" fill-opacity="1"><g transform="translate(106.803104, 220.040907)"><g><path d="M 2.203125 -14.734375 L 4.3125 -14.734375 L 4.3125 -1.828125 L 12.296875 -1.828125 L 12.296875 0 L 2.203125 0 Z M 2.203125 -14.734375 "/></g></g></g><g fill="#004aad" fill-opacity="1"><g transform="translate(119.305316, 220.040907)"><g><path d="M 7.953125 -14.734375 C 9.859375 -14.734375 11.359375 -14.273438 12.453125 -13.359375 C 13.546875 -12.453125 14.09375 -11.195312 14.09375 -9.59375 C 14.09375 -8 13.546875 -6.742188 12.453125 -5.828125 C 11.359375 -4.921875 9.859375 -4.46875 7.953125 -4.46875 L 4.3125 -4.46875 L 4.3125 0 L 2.203125 0 L 2.203125 -14.734375 Z M 7.890625 -6.296875 C 9.222656 -6.296875 10.238281 -6.578125 10.9375 -7.140625 C 11.644531 -7.710938 12 -8.53125 12 -9.59375 C 12 -10.664062 11.644531 -11.484375 10.9375 -12.046875 C 10.238281 -12.617188 9.222656 -12.90625 7.890625 -12.90625 L 4.3125 -12.90625 L 4.3125 -6.296875 Z M 7.890625 -6.296875 "/></g></g></g><g fill="#004aad" fill-opacity="1"><g transform="translate(134.501608, 220.040907)"><g><path d="M 14.875 -14.734375 L 14.875 0 L 12.78125 0 L 12.78125 -6.5625 L 4.3125 -6.5625 L 4.3125 0 L 2.203125 0 L 2.203125 -14.734375 L 4.3125 -14.734375 L 4.3125 -8.390625 L 12.78125 -8.390625 L 12.78125 -14.734375 Z M 14.875 -14.734375 "/></g></g></g><g fill="#004aad" fill-opacity="1"><g transform="translate(151.592177, 220.040907)"><g><path d="M 7.84375 -5.09375 L 7.84375 0 L 5.765625 0 L 5.765625 -5.140625 L -0.078125 -14.734375 L 2.171875 -14.734375 L 6.875 -6.96875 L 11.625 -14.734375 L 13.703125 -14.734375 Z M 7.84375 -5.09375 "/></g></g></g><g fill="#004aad" fill-opacity="1"><g transform="translate(165.209909, 220.040907)"><g/></g></g><g fill="#fffff0" fill-opacity="0.4"><g transform="translate(171.94985, 221.120154)"><g><path d="M 2.203125 -14.734375 L 8.421875 -14.734375 C 9.972656 -14.734375 11.351562 -14.421875 12.5625 -13.796875 C 13.769531 -13.179688 14.707031 -12.316406 15.375 -11.203125 C 16.039062 -10.085938 16.375 -8.804688 16.375 -7.359375 C 16.375 -5.921875 16.039062 -4.644531 15.375 -3.53125 C 14.707031 -2.414062 13.769531 -1.546875 12.5625 -0.921875 C 11.351562 -0.304688 9.972656 0 8.421875 0 L 2.203125 0 Z M 8.296875 -1.828125 C 9.484375 -1.828125 10.53125 -2.054688 11.4375 -2.515625 C 12.34375 -2.984375 13.039062 -3.632812 13.53125 -4.46875 C 14.019531 -5.300781 14.265625 -6.265625 14.265625 -7.359375 C 14.265625 -8.460938 14.019531 -9.429688 13.53125 -10.265625 C 13.039062 -11.097656 12.34375 -11.742188 11.4375 -12.203125 C 10.53125 -12.671875 9.484375 -12.90625 8.296875 -12.90625 L 4.3125 -12.90625 L 4.3125 -1.828125 Z M 8.296875 -1.828125 "/></g></g></g><g fill="#fffff0" fill-opacity="0.4"><g transform="translate(189.335077, 221.120154)"><g><path d="M 12.90625 -1.828125 L 12.90625 0 L 2.203125 0 L 2.203125 -14.734375 L 12.609375 -14.734375 L 12.609375 -12.90625 L 4.3125 -12.90625 L 4.3125 -8.375 L 11.703125 -8.375 L 11.703125 -6.59375 L 4.3125 -6.59375 L 4.3125 -1.828125 Z M 12.90625 -1.828125 "/></g></g></g><g fill="#fffff0" fill-opacity="0.4"><g transform="translate(203.436895, 221.120154)"><g><path d="M 15 -14.734375 L 8.546875 0 L 6.46875 0 L -0.015625 -14.734375 L 2.25 -14.734375 L 7.5625 -2.625 L 12.90625 -14.734375 Z M 15 -14.734375 "/></g></g></g><g fill="#fffff0" fill-opacity="0.4"><g transform="translate(218.422713, 221.120154)"><g><path d="M 12.90625 -1.828125 L 12.90625 0 L 2.203125 0 L 2.203125 -14.734375 L 12.609375 -14.734375 L 12.609375 -12.90625 L 4.3125 -12.90625 L 4.3125 -8.375 L 11.703125 -8.375 L 11.703125 -6.59375 L 4.3125 -6.59375 L 4.3125 -1.828125 Z M 12.90625 -1.828125 "/></g></g></g><g fill="#fffff0" fill-opacity="0.4"><g transform="translate(232.524532, 221.120154)"><g><path d="M 2.203125 -14.734375 L 4.3125 -14.734375 L 4.3125 -1.828125 L 12.296875 -1.828125 L 12.296875 0 L 2.203125 0 Z M 2.203125 -14.734375 "/></g></g></g><g fill="#fffff0" fill-opacity="0.4"><g transform="translate(245.026744, 221.120154)"><g><path d="M 8.859375 0.171875 C 7.367188 0.171875 6.023438 -0.148438 4.828125 -0.796875 C 3.640625 -1.453125 2.707031 -2.351562 2.03125 -3.5 C 1.351562 -4.65625 1.015625 -5.941406 1.015625 -7.359375 C 1.015625 -8.773438 1.351562 -10.054688 2.03125 -11.203125 C 2.707031 -12.359375 3.640625 -13.265625 4.828125 -13.921875 C 6.023438 -14.578125 7.367188 -14.90625 8.859375 -14.90625 C 10.335938 -14.90625 11.671875 -14.578125 12.859375 -13.921875 C 14.054688 -13.265625 14.988281 -12.363281 15.65625 -11.21875 C 16.332031 -10.082031 16.671875 -8.796875 16.671875 -7.359375 C 16.671875 -5.929688 16.332031 -4.644531 15.65625 -3.5 C 14.988281 -2.351562 14.054688 -1.453125 12.859375 -0.796875 C 11.671875 -0.148438 10.335938 0.171875 8.859375 0.171875 Z M 8.859375 -1.703125 C 9.941406 -1.703125 10.910156 -1.945312 11.765625 -2.4375 C 12.628906 -2.925781 13.3125 -3.601562 13.8125 -4.46875 C 14.3125 -5.332031 14.5625 -6.296875 14.5625 -7.359375 C 14.5625 -8.429688 14.3125 -9.398438 13.8125 -10.265625 C 13.3125 -11.128906 12.628906 -11.804688 11.765625 -12.296875 C 10.910156 -12.785156 9.941406 -13.03125 8.859375 -13.03125 C 7.773438 -13.03125 6.796875 -12.785156 5.921875 -12.296875 C 5.046875 -11.804688 4.359375 -11.128906 3.859375 -10.265625 C 3.359375 -9.398438 3.109375 -8.429688 3.109375 -7.359375 C 3.109375 -6.296875 3.359375 -5.332031 3.859375 -4.46875 C 4.359375 -3.601562 5.046875 -2.925781 5.921875 -2.4375 C 6.796875 -1.945312 7.773438 -1.703125 8.859375 -1.703125 Z M 8.859375 -1.703125 "/></g></g></g><g fill="#fffff0" fill-opacity="0.4"><g transform="translate(262.706642, 221.120154)"><g><path d="M 7.953125 -14.734375 C 9.859375 -14.734375 11.359375 -14.273438 12.453125 -13.359375 C 13.546875 -12.453125 14.09375 -11.195312 14.09375 -9.59375 C 14.09375 -8 13.546875 -6.742188 12.453125 -5.828125 C 11.359375 -4.921875 9.859375 -4.46875 7.953125 -4.46875 L 4.3125 -4.46875 L 4.3125 0 L 2.203125 0 L 2.203125 -14.734375 Z M 7.890625 -6.296875 C 9.222656 -6.296875 10.238281 -6.578125 10.9375 -7.140625 C 11.644531 -7.710938 12 -8.53125 12 -9.59375 C 12 -10.664062 11.644531 -11.484375 10.9375 -12.046875 C 10.238281 -12.617188 9.222656 -12.90625 7.890625 -12.90625 L 4.3125 -12.90625 L 4.3125 -6.296875 Z M 7.890625 -6.296875 "/></g></g></g><g fill="#fffff0" fill-opacity="0.4"><g transform="translate(277.902934, 221.120154)"><g><path d="M 12.90625 -1.828125 L 12.90625 0 L 2.203125 0 L 2.203125 -14.734375 L 12.609375 -14.734375 L 12.609375 -12.90625 L 4.3125 -12.90625 L 4.3125 -8.375 L 11.703125 -8.375 L 11.703125 -6.59375 L 4.3125 -6.59375 L 4.3125 -1.828125 Z M 12.90625 -1.828125 "/></g></g></g><g fill="#fffff0" fill-opacity="0.4"><g transform="translate(292.004752, 221.120154)"><g><path d="M 12.0625 0 L 8.875 -4.53125 C 8.488281 -4.5 8.179688 -4.484375 7.953125 -4.484375 L 4.3125 -4.484375 L 4.3125 0 L 2.203125 0 L 2.203125 -14.734375 L 7.953125 -14.734375 C 9.859375 -14.734375 11.359375 -14.273438 12.453125 -13.359375 C 13.546875 -12.453125 14.09375 -11.195312 14.09375 -9.59375 C 14.09375 -8.457031 13.8125 -7.488281 13.25 -6.6875 C 12.695312 -5.894531 11.898438 -5.316406 10.859375 -4.953125 L 14.359375 0 Z M 7.890625 -6.265625 C 9.222656 -6.265625 10.238281 -6.550781 10.9375 -7.125 C 11.644531 -7.707031 12 -8.53125 12 -9.59375 C 12 -10.664062 11.644531 -11.484375 10.9375 -12.046875 C 10.238281 -12.617188 9.222656 -12.90625 7.890625 -12.90625 L 4.3125 -12.90625 L 4.3125 -6.265625 Z M 7.890625 -6.265625 "/></g></g></g><g fill="#fffff0" fill-opacity="0.4"><g transform="translate(307.306287, 221.120154)"><g><path d="M 6.5 0.171875 C 5.394531 0.171875 4.328125 0 3.296875 -0.34375 C 2.265625 -0.6875 1.453125 -1.132812 0.859375 -1.6875 L 1.640625 -3.328125 C 2.203125 -2.816406 2.921875 -2.40625 3.796875 -2.09375 C 4.671875 -1.78125 5.570312 -1.625 6.5 -1.625 C 7.71875 -1.625 8.628906 -1.828125 9.234375 -2.234375 C 9.835938 -2.648438 10.140625 -3.203125 10.140625 -3.890625 C 10.140625 -4.398438 9.972656 -4.8125 9.640625 -5.125 C 9.316406 -5.4375 8.910156 -5.675781 8.421875 -5.84375 C 7.941406 -6.019531 7.257812 -6.210938 6.375 -6.421875 C 5.269531 -6.679688 4.375 -6.945312 3.6875 -7.21875 C 3.007812 -7.488281 2.425781 -7.898438 1.9375 -8.453125 C 1.457031 -9.003906 1.21875 -9.75 1.21875 -10.6875 C 1.21875 -11.476562 1.425781 -12.1875 1.84375 -12.8125 C 2.257812 -13.445312 2.882812 -13.953125 3.71875 -14.328125 C 4.5625 -14.710938 5.609375 -14.90625 6.859375 -14.90625 C 7.734375 -14.90625 8.585938 -14.789062 9.421875 -14.5625 C 10.265625 -14.34375 10.988281 -14.019531 11.59375 -13.59375 L 10.90625 -11.90625 C 10.28125 -12.300781 9.617188 -12.597656 8.921875 -12.796875 C 8.222656 -13.003906 7.535156 -13.109375 6.859375 -13.109375 C 5.671875 -13.109375 4.773438 -12.890625 4.171875 -12.453125 C 3.578125 -12.023438 3.28125 -11.46875 3.28125 -10.78125 C 3.28125 -10.269531 3.445312 -9.859375 3.78125 -9.546875 C 4.125 -9.234375 4.539062 -8.988281 5.03125 -8.8125 C 5.53125 -8.632812 6.210938 -8.445312 7.078125 -8.25 C 8.179688 -7.976562 9.066406 -7.707031 9.734375 -7.4375 C 10.410156 -7.175781 10.988281 -6.769531 11.46875 -6.21875 C 11.957031 -5.675781 12.203125 -4.941406 12.203125 -4.015625 C 12.203125 -3.242188 11.988281 -2.539062 11.5625 -1.90625 C 11.144531 -1.269531 10.507812 -0.765625 9.65625 -0.390625 C 8.800781 -0.015625 7.75 0.171875 6.5 0.171875 Z M 6.5 0.171875 "/></g></g></g><g fill="#ffffff" fill-opacity="1"><g transform="translate(170.8706, 220.040907)"><g><path d="M 2.203125 -14.734375 L 8.421875 -14.734375 C 9.972656 -14.734375 11.351562 -14.421875 12.5625 -13.796875 C 13.769531 -13.179688 14.707031 -12.316406 15.375 -11.203125 C 16.039062 -10.085938 16.375 -8.804688 16.375 -7.359375 C 16.375 -5.921875 16.039062 -4.644531 15.375 -3.53125 C 14.707031 -2.414062 13.769531 -1.546875 12.5625 -0.921875 C 11.351562 -0.304688 9.972656 0 8.421875 0 L 2.203125 0 Z M 8.296875 -1.828125 C 9.484375 -1.828125 10.53125 -2.054688 11.4375 -2.515625 C 12.34375 -2.984375 13.039062 -3.632812 13.53125 -4.46875 C 14.019531 -5.300781 14.265625 -6.265625 14.265625 -7.359375 C 14.265625 -8.460938 14.019531 -9.429688 13.53125 -10.265625 C 13.039062 -11.097656 12.34375 -11.742188 11.4375 -12.203125 C 10.53125 -12.671875 9.484375 -12.90625 8.296875 -12.90625 L 4.3125 -12.90625 L 4.3125 -1.828125 Z M 8.296875 -1.828125 "/></g></g></g><g fill="#ffffff" fill-opacity="1"><g transform="translate(188.255827, 220.040907)"><g><path d="M 12.90625 -1.828125 L 12.90625 0 L 2.203125 0 L 2.203125 -14.734375 L 12.609375 -14.734375 L 12.609375 -12.90625 L 4.3125 -12.90625 L 4.3125 -8.375 L 11.703125 -8.375 L 11.703125 -6.59375 L 4.3125 -6.59375 L 4.3125 -1.828125 Z M 12.90625 -1.828125 "/></g></g></g><g fill="#ffffff" fill-opacity="1"><g transform="translate(202.357646, 220.040907)"><g><path d="M 15 -14.734375 L 8.546875 0 L 6.46875 0 L -0.015625 -14.734375 L 2.25 -14.734375 L 7.5625 -2.625 L 12.90625 -14.734375 Z M 15 -14.734375 "/></g></g></g><g fill="#ffffff" fill-opacity="1"><g transform="translate(217.343464, 220.040907)"><g><path d="M 12.90625 -1.828125 L 12.90625 0 L 2.203125 0 L 2.203125 -14.734375 L 12.609375 -14.734375 L 12.609375 -12.90625 L 4.3125 -12.90625 L 4.3125 -8.375 L 11.703125 -8.375 L 11.703125 -6.59375 L 4.3125 -6.59375 L 4.3125 -1.828125 Z M 12.90625 -1.828125 "/></g></g></g><g fill="#ffffff" fill-opacity="1"><g transform="translate(231.445282, 220.040907)"><g><path d="M 2.203125 -14.734375 L 4.3125 -14.734375 L 4.3125 -1.828125 L 12.296875 -1.828125 L 12.296875 0 L 2.203125 0 Z M 2.203125 -14.734375 "/></g></g></g><g fill="#ffffff" fill-opacity="1"><g transform="translate(243.947495, 220.040907)"><g><path d="M 8.859375 0.171875 C 7.367188 0.171875 6.023438 -0.148438 4.828125 -0.796875 C 3.640625 -1.453125 2.707031 -2.351562 2.03125 -3.5 C 1.351562 -4.65625 1.015625 -5.941406 1.015625 -7.359375 C 1.015625 -8.773438 1.351562 -10.054688 2.03125 -11.203125 C 2.707031 -12.359375 3.640625 -13.265625 4.828125 -13.921875 C 6.023438 -14.578125 7.367188 -14.90625 8.859375 -14.90625 C 10.335938 -14.90625 11.671875 -14.578125 12.859375 -13.921875 C 14.054688 -13.265625 14.988281 -12.363281 15.65625 -11.21875 C 16.332031 -10.082031 16.671875 -8.796875 16.671875 -7.359375 C 16.671875 -5.929688 16.332031 -4.644531 15.65625 -3.5 C 14.988281 -2.351562 14.054688 -1.453125 12.859375 -0.796875 C 11.671875 -0.148438 10.335938 0.171875 8.859375 0.171875 Z M 8.859375 -1.703125 C 9.941406 -1.703125 10.910156 -1.945312 11.765625 -2.4375 C 12.628906 -2.925781 13.3125 -3.601562 13.8125 -4.46875 C 14.3125 -5.332031 14.5625 -6.296875 14.5625 -7.359375 C 14.5625 -8.429688 14.3125 -9.398438 13.8125 -10.265625 C 13.3125 -11.128906 12.628906 -11.804688 11.765625 -12.296875 C 10.910156 -12.785156 9.941406 -13.03125 8.859375 -13.03125 C 7.773438 -13.03125 6.796875 -12.785156 5.921875 -12.296875 C 5.046875 -11.804688 4.359375 -11.128906 3.859375 -10.265625 C 3.359375 -9.398438 3.109375 -8.429688 3.109375 -7.359375 C 3.109375 -6.296875 3.359375 -5.332031 3.859375 -4.46875 C 4.359375 -3.601562 5.046875 -2.925781 5.921875 -2.4375 C 6.796875 -1.945312 7.773438 -1.703125 8.859375 -1.703125 Z M 8.859375 -1.703125 "/></g></g></g><g fill="#ffffff" fill-opacity="1"><g transform="translate(261.627392, 220.040907)"><g><path d="M 7.953125 -14.734375 C 9.859375 -14.734375 11.359375 -14.273438 12.453125 -13.359375 C 13.546875 -12.453125 14.09375 -11.195312 14.09375 -9.59375 C 14.09375 -8 13.546875 -6.742188 12.453125 -5.828125 C 11.359375 -4.921875 9.859375 -4.46875 7.953125 -4.46875 L 4.3125 -4.46875 L 4.3125 0 L 2.203125 0 L 2.203125 -14.734375 Z M 7.890625 -6.296875 C 9.222656 -6.296875 10.238281 -6.578125 10.9375 -7.140625 C 11.644531 -7.710938 12 -8.53125 12 -9.59375 C 12 -10.664062 11.644531 -11.484375 10.9375 -12.046875 C 10.238281 -12.617188 9.222656 -12.90625 7.890625 -12.90625 L 4.3125 -12.90625 L 4.3125 -6.296875 Z M 7.890625 -6.296875 "/></g></g></g><g fill="#ffffff" fill-opacity="1"><g transform="translate(276.823684, 220.040907)"><g><path d="M 12.90625 -1.828125 L 12.90625 0 L 2.203125 0 L 2.203125 -14.734375 L 12.609375 -14.734375 L 12.609375 -12.90625 L 4.3125 -12.90625 L 4.3125 -8.375 L 11.703125 -8.375 L 11.703125 -6.59375 L 4.3125 -6.59375 L 4.3125 -1.828125 Z M 12.90625 -1.828125 "/></g></g></g><g fill="#ffffff" fill-opacity="1"><g transform="translate(290.925503, 220.040907)"><g><path d="M 12.0625 0 L 8.875 -4.53125 C 8.488281 -4.5 8.179688 -4.484375 7.953125 -4.484375 L 4.3125 -4.484375 L 4.3125 0 L 2.203125 0 L 2.203125 -14.734375 L 7.953125 -14.734375 C 9.859375 -14.734375 11.359375 -14.273438 12.453125 -13.359375 C 13.546875 -12.453125 14.09375 -11.195312 14.09375 -9.59375 C 14.09375 -8.457031 13.8125 -7.488281 13.25 -6.6875 C 12.695312 -5.894531 11.898438 -5.316406 10.859375 -4.953125 L 14.359375 0 Z M 7.890625 -6.265625 C 9.222656 -6.265625 10.238281 -6.550781 10.9375 -7.125 C 11.644531 -7.707031 12 -8.53125 12 -9.59375 C 12 -10.664062 11.644531 -11.484375 10.9375 -12.046875 C 10.238281 -12.617188 9.222656 -12.90625 7.890625 -12.90625 L 4.3125 -12.90625 L 4.3125 -6.265625 Z M 7.890625 -6.265625 "/></g></g></g><g fill="#ffffff" fill-opacity="1"><g transform="translate(306.227038, 220.040907)"><g><path d="M 6.5 0.171875 C 5.394531 0.171875 4.328125 0 3.296875 -0.34375 C 2.265625 -0.6875 1.453125 -1.132812 0.859375 -1.6875 L 1.640625 -3.328125 C 2.203125 -2.816406 2.921875 -2.40625 3.796875 -2.09375 C 4.671875 -1.78125 5.570312 -1.625 6.5 -1.625 C 7.71875 -1.625 8.628906 -1.828125 9.234375 -2.234375 C 9.835938 -2.648438 10.140625 -3.203125 10.140625 -3.890625 C 10.140625 -4.398438 9.972656 -4.8125 9.640625 -5.125 C 9.316406 -5.4375 8.910156 -5.675781 8.421875 -5.84375 C 7.941406 -6.019531 7.257812 -6.210938 6.375 -6.421875 C 5.269531 -6.679688 4.375 -6.945312 3.6875 -7.21875 C 3.007812 -7.488281 2.425781 -7.898438 1.9375 -8.453125 C 1.457031 -9.003906 1.21875 -9.75 1.21875 -10.6875 C 1.21875 -11.476562 1.425781 -12.1875 1.84375 -12.8125 C 2.257812 -13.445312 2.882812 -13.953125 3.71875 -14.328125 C 4.5625 -14.710938 5.609375 -14.90625 6.859375 -14.90625 C 7.734375 -14.90625 8.585938 -14.789062 9.421875 -14.5625 C 10.265625 -14.34375 10.988281 -14.019531 11.59375 -13.59375 L 10.90625 -11.90625 C 10.28125 -12.300781 9.617188 -12.597656 8.921875 -12.796875 C 8.222656 -13.003906 7.535156 -13.109375 6.859375 -13.109375 C 5.671875 -13.109375 4.773438 -12.890625 4.171875 -12.453125 C 3.578125 -12.023438 3.28125 -11.46875 3.28125 -10.78125 C 3.28125 -10.269531 3.445312 -9.859375 3.78125 -9.546875 C 4.125 -9.234375 4.539062 -8.988281 5.03125 -8.8125 C 5.53125 -8.632812 6.210938 -8.445312 7.078125 -8.25 C 8.179688 -7.976562 9.066406 -7.707031 9.734375 -7.4375 C 10.410156 -7.175781 10.988281 -6.769531 11.46875 -6.21875 C 11.957031 -5.675781 12.203125 -4.941406 12.203125 -4.015625 C 12.203125 -3.242188 11.988281 -2.539062 11.5625 -1.90625 C 11.144531 -1.269531 10.507812 -0.765625 9.65625 -0.390625 C 8.800781 -0.015625 7.75 0.171875 6.5 0.171875 Z M 6.5 0.171875 "/></g></g></g></svg>